<svg xmlns="http://www.w3.org/2000/svg" width="1400" height="920" viewBox="0 0 1400 920">
  <defs>
    <style>
      .bg { fill: #0b0b0b; }
      .title { fill: #f1f1f1; font: 700 34px "Segoe UI", Arial, sans-serif; }
      .label { fill: #e6e6e6; font: 600 18px "Segoe UI", Arial, sans-serif; }
      .small { fill: #bbbbbb; font: 500 14px "Segoe UI", Arial, sans-serif; }
      .box { fill: #151515; stroke: #3d3d3d; stroke-width: 2; rx: 16; }
      .box2 { fill: #191919; stroke: #4a4a4a; stroke-width: 2; rx: 16; }
      .line { stroke: #8e8e8e; stroke-width: 3; fill: none; }
    </style>
    <marker id="arrow" markerWidth="12" markerHeight="8" refX="10" refY="4" orient="auto">
      <polygon points="0,0 12,4 0,8" fill="#a3a3a3"/>
    </marker>
  </defs>

  <rect class="bg" x="0" y="0" width="1400" height="920"/>
  <text class="title" x="700" y="70" text-anchor="middle">ShinzoGPT Architecture</text>

  <rect class="box" x="80" y="130" width="280" height="90"/>
  <text class="label" x="220" y="183" text-anchor="middle">User Browser</text>

  <rect class="box2" x="470" y="120" width="460" height="120"/>
  <text class="label" x="700" y="170" text-anchor="middle">Streamlit UI (chatbot.py)</text>
  <text class="small" x="700" y="200" text-anchor="middle">provider/model controls, uploads, metrics panel</text>

  <rect class="box2" x="470" y="330" width="460" height="130"/>
  <text class="label" x="700" y="385" text-anchor="middle">FastAPI Backend (api.py)</text>
  <text class="small" x="700" y="415" text-anchor="middle">validation, retries, rate limits, observability</text>

  <rect class="box" x="470" y="560" width="220" height="110"/>
  <text class="label" x="580" y="615" text-anchor="middle">Routing Layer</text>
  <text class="small" x="580" y="642" text-anchor="middle">auto / chat / rag</text>

  <rect class="box" x="780" y="560" width="260" height="110"/>
  <text class="label" x="910" y="615" text-anchor="middle">Direct LLM Path</text>
  <text class="small" x="910" y="642" text-anchor="middle">chat-only response</text>

  <rect class="box" x="470" y="740" width="220" height="120"/>
  <text class="label" x="580" y="793" text-anchor="middle">RAG Utility</text>
  <text class="small" x="580" y="820" text-anchor="middle">rag_utility.py</text>

  <rect class="box" x="780" y="740" width="260" height="120"/>
  <text class="label" x="910" y="793" text-anchor="middle">LLM Providers</text>
  <text class="small" x="910" y="820" text-anchor="middle">Groq / Moonshot</text>

  <rect class="box" x="1110" y="740" width="220" height="120"/>
  <text class="label" x="1220" y="793" text-anchor="middle">Chroma Vector DB</text>
  <text class="small" x="1220" y="820" text-anchor="middle">indexed embeddings</text>

  <rect class="box" x="1110" y="330" width="220" height="130"/>
  <text class="label" x="1220" y="385" text-anchor="middle">Metrics + Logs</text>
  <text class="small" x="1220" y="415" text-anchor="middle">/metrics, structured events</text>

  <path class="line" d="M360 175 L470 175" marker-end="url(#arrow)"/>
  <path class="line" d="M700 240 L700 330" marker-end="url(#arrow)"/>
  <path class="line" d="M820 330 L820 275 L700 275 L700 240" marker-end="url(#arrow)"/>

  <path class="line" d="M700 460 L700 560" marker-end="url(#arrow)"/>
  <path class="line" d="M690 615 L780 615" marker-end="url(#arrow)"/>
  <path class="line" d="M580 670 L580 740" marker-end="url(#arrow)"/>
  <path class="line" d="M690 795 L780 795" marker-end="url(#arrow)"/>
  <path class="line" d="M1040 795 L1110 795" marker-end="url(#arrow)"/>
  <path class="line" d="M930 395 L1110 395" marker-end="url(#arrow)"/>

  <text class="small" x="710" y="300" text-anchor="middle">HTTP: /upload, /chat, /metrics/*</text>
</svg>
